<svg width="513" height="409" viewBox="0 0 513 409" fill="none" xmlns="http://www.w3.org/2000/svg">
<g clip-path="url(#clip0_303_962)">
<path d="M432.339 391.6C434.359 391.726 435.474 389.216 433.946 387.754L433.793 387.149C433.813 387.101 433.833 387.053 433.854 387.005C435.058 384.13 438.376 382.769 441.257 383.96C450.364 387.725 440.749 396.378 441.471 402.233C441.725 404.254 449.64 404.365 449.192 406.348C453.402 397.145 455.615 387.096 455.611 376.991C455.61 374.452 455.471 371.913 455.185 369.38C454.951 367.309 454.628 365.25 454.211 363.21C451.952 352.184 447.067 341.683 440.023 332.913C436.637 331.063 438.702 328.17 436.996 324.703C436.383 323.453 430.916 323.425 430.688 322.054C430.933 322.086 434.467 318.416 433.299 316.601C432.531 315.407 432.77 313.886 433.757 312.866C433.854 312.766 433.945 312.66 434.029 312.546C436.943 308.592 440.961 309.281 443.06 314.653C447.541 316.913 447.586 320.663 444.838 324.271C443.09 326.566 442.851 329.672 441.317 332.129C441.475 332.331 441.639 332.527 441.797 332.729C444.694 336.441 447.199 340.432 449.312 344.625C448.713 339.965 449.592 334.35 451.093 330.73C452.813 326.576 456.049 323.081 458.884 319.488C462.27 315.197 469.161 317.144 469.76 322.577C469.765 322.63 469.771 322.682 469.776 322.734C469.357 322.971 468.946 323.222 468.545 323.488C466.258 325.001 467.051 328.547 469.761 328.964L469.823 328.974C469.672 330.483 464.315 335.239 463.937 336.71C467.56 350.701 464.849 352.549 453.704 352.783L453.119 353.616C454.175 356.653 455.025 359.763 455.663 362.913C456.264 365.837 456.682 368.792 456.917 371.761C457.208 375.506 457.184 379.27 456.87 383.009L456.889 382.876C457.689 378.758 459.924 374.911 463.169 372.245C468.003 368.271 474.834 366.805 480.05 363.61C482.561 362.073 485.779 364.058 485.342 366.97L485.321 367.109C484.544 367.425 483.786 367.792 483.054 368.202C482.634 368.439 482.223 368.691 481.822 368.957C479.535 370.471 480.328 374.017 483.039 374.433L483.1 374.442C483.145 374.449 483.183 374.455 483.227 374.461C481.895 377.626 469.21 382.09 466.887 384.623C464.628 396.844 465.738 396.48 455.339 392.925H455.333C454.198 397.877 452.538 402.716 450.405 407.327L432.786 407.333C432.723 407.137 432.666 406.935 432.609 406.739C434.238 406.84 435.88 406.744 437.484 406.447C436.176 404.843 434.869 403.227 433.561 401.623C433.529 401.592 433.504 401.56 433.479 401.529L433.459 401.504L431.645 395.532C431.788 394.207 432.022 392.893 432.339 391.6Z" fill="#F2F2F2"/>
<path d="M246.145 407.19L90.2347 407.244C82.4021 407.247 75.386 403.199 71.4673 396.416C69.5078 393.025 68.5278 389.304 68.5265 385.583C68.5252 381.862 69.5031 378.14 71.4598 374.748L149.365 232.914C153.28 226.128 160.293 222.076 168.126 222.073C175.958 222.071 182.974 226.118 186.894 232.901L264.907 374.699C266.862 378.081 267.839 381.797 267.84 385.516C267.839 389.235 266.862 392.956 264.905 396.349C260.991 403.134 253.978 407.187 246.145 407.19ZM70.4863 385.58C70.486 388.967 87.6902 381.669 89.4726 384.754C93.0377 390.924 83.108 405.291 90.234 405.288C90.234 405.288 259.65 401.545 263.211 395.372C264.991 392.286 265.881 388.9 265.88 385.515C265.879 382.129 264.987 378.744 263.204 375.659L185.19 233.862C181.635 227.709 175.252 224.026 168.126 224.029C161.004 224.031 70.4866 382.193 70.4863 385.58Z" fill="#3F3D56"/>
<path d="M247.876 405.234C245.922 409.146 337.452 407.943 338.535 407.943C338.535 407.943 364.261 407.375 364.802 406.437C365.072 405.969 365.207 405.454 365.207 404.94C365.207 404.426 365.072 403.912 364.801 403.444L352.954 381.911C352.414 380.977 351.445 380.418 350.363 380.418C350.318 380.418 350.252 380.458 350.166 380.535C334.362 394.658 314.886 403.995 293.693 404.31C271.159 404.646 248.001 404.985 247.876 405.234Z" fill="#3F3D56"/>
<path d="M7.31865e-08 407.837C0.000224957 408.482 0.518642 409 1.16399 409L511.837 408.823C512.482 408.823 513 408.305 513 407.659C513 407.014 512.481 406.496 511.836 406.496L1.16319 406.673C0.51784 406.673 -0.000224811 407.191 7.31865e-08 407.837Z" fill="#CCCCCC"/>
<path d="M394.895 402.189L386.051 402.191L381.832 368.078L394.885 368.075L394.895 402.189Z" fill="#A0616A"/>
<path d="M364.595 401.998C364.32 402.462 364.175 403.959 364.176 404.498C364.176 406.156 365.52 407.5 367.178 407.499L394.566 407.49C395.696 407.489 396.613 406.572 396.613 405.441L396.612 404.301C396.612 404.301 397.966 400.873 395.175 396.65C395.175 396.65 391.709 399.959 386.527 394.78L384.999 392.013L373.944 400.104L367.815 400.861C366.474 401.026 365.285 400.836 364.595 401.998Z" fill="#2F2E41"/>
<path d="M360.985 373.012L352.608 375.847L337.687 344.883L350.051 340.699L360.985 373.012Z" fill="#A0616A"/>
<path d="M332.221 382.537C332.109 383.065 332.451 384.529 332.624 385.04C333.156 386.61 334.859 387.453 336.429 386.921L362.371 378.14C363.442 377.777 364.017 376.615 363.654 375.544L363.289 374.464C363.289 374.464 363.473 370.783 359.477 367.676C359.477 367.676 357.254 371.921 350.686 368.674L348.352 366.542L340.47 377.749L334.907 380.429C333.689 381.015 332.502 381.216 332.221 382.537Z" fill="#2F2E41"/>
<path d="M347.325 175.121L330.172 231.934L309.922 283.037L341.981 356.016L353.868 350.727L339.644 283.687L369.473 238.195L383.393 380.208L395.281 379.543L411.404 208.126L413.703 170.804L347.325 175.121Z" fill="#2F2E41"/>
<path d="M399.13 49.2686L374.033 53.9011L372.055 65.1311L356.867 72.4023L348.969 154.973C348.969 154.973 335.765 172.152 346.335 177.433L413.703 170.804C413.703 170.804 417.001 158.591 413.699 157.432C410.396 156.273 410.386 127.1 410.386 127.1L425.556 67.0942L403.097 59.1754L399.13 49.2686Z" fill="#E6E6E6"/>
<path d="M384.327 49.0515C395.52 49.0515 404.594 39.9771 404.594 28.7833C404.594 17.5895 395.52 8.51514 384.327 8.51514C373.134 8.51514 364.061 17.5895 364.061 28.7833C364.061 39.9771 373.134 49.0515 384.327 49.0515Z" fill="#A0616A"/>
<path d="M397.748 31.7916C396.131 32.6771 397.665 36.9044 396.654 37.2699C395.486 37.6923 391.226 32.8431 391.173 27.4116C391.158 25.7677 391.536 24.9784 391.172 23.0293C390.696 20.4798 389.236 17.4727 387.884 17.5525C387.082 17.5999 386.299 18.733 386.241 19.7443C386.159 21.1616 387.536 21.7194 387.338 22.4828C386.96 23.937 381.179 24.9409 379.121 22.4857C377.508 20.5608 378.745 17.1812 378.024 17.0082C377.492 16.8806 376.921 18.7413 374.739 20.8438C373.917 21.636 372.694 22.8141 372.001 22.4881C370.999 22.0171 371.727 18.6978 371.452 18.6538C371.224 18.6174 371.081 20.9504 369.81 23.0367C368.177 25.717 364.81 27.7828 363.238 26.8735C362.275 26.3163 362.199 24.7652 362.142 23.5871C362.02 21.1052 358.413 15.3964 359.346 12.7413C361.245 7.33752 364.499 11.1467 365.971 9.34331C367.963 6.90196 369.751 8.21456 373.09 5.50633C376.353 2.86066 376.381 0.201534 378.566 0.0265404C380.533 -0.131047 381.233 1.96782 383.496 1.6682C385.413 1.41438 385.83 -0.213508 387.33 0.0234994C388.702 0.240481 388.793 1.67456 390.617 2.21352C391.781 2.5576 392.037 2.05958 393.356 2.21257C396.099 2.53091 397.941 5.02954 398.287 5.4976C399.617 7.30196 399.101 8.06286 400.479 9.87914C401.668 11.4454 404.301 10.7803 405.291 11.5626C408.527 14.1187 409.917 18.8328 409.945 24.2056C409.965 27.9635 409.475 29.8622 408.382 34.6055C407.552 38.2073 403.707 42.8617 401.587 44.9372C401.018 45.4944 399.422 47.0562 398.301 46.5817C397.238 46.1321 397.206 44.1101 397.204 43.8432C397.199 42.925 397.444 41.7888 399.394 38.9123C401.441 35.8907 402.255 35.5459 402.131 34.5291C401.911 32.7316 399.037 31.0859 397.748 31.7916Z" fill="#2F2E41"/>
<path d="M327.055 220.756C326.424 226.039 328.638 230.647 331.999 231.048C335.361 231.45 338.597 227.493 339.228 222.21C339.504 219.897 339.235 217.714 338.563 215.956L340.955 193.538L330.412 192.639L329.173 214.835C328.106 216.385 327.331 218.443 327.055 220.756Z" fill="#A0616A"/>
<path d="M357.362 71.8687C357.362 71.8687 351.899 71.9464 348.282 79.0106C346.36 82.7645 336.078 152.962 336.078 152.962L326.606 210.467L342.741 210.548L355.314 156.09L365.891 124.505L357.362 71.8687Z" fill="#E6E6E6"/>
<path d="M402.767 212.318C401.222 217.409 402.596 222.333 405.835 223.316C409.075 224.3 412.954 220.97 414.499 215.878C415.175 213.65 415.292 211.453 414.938 209.605L421.214 187.951L410.99 185.222L405.888 206.859C404.567 208.198 403.444 210.089 402.767 212.318Z" fill="#A0616A"/>
<path d="M413.998 68.0886C413.998 68.0886 421.922 62.1409 428.53 71.3863C435.138 80.6317 437.806 156.594 437.806 156.594L419.329 203.499L405.457 198.88L418.647 141.408L395.514 97.8196L413.998 68.0886Z" fill="#E6E6E6"/>
<path d="M213.62 375.91C253.04 375.91 284.996 343.952 284.996 304.528C284.996 265.105 253.04 233.146 213.62 233.146C174.2 233.146 142.244 265.105 142.244 304.528C142.244 343.952 174.2 375.91 213.62 375.91Z" fill="#C71585"/>
<path d="M213.633 348.286C217.252 348.286 220.187 345.352 220.187 341.732C220.187 338.113 217.252 335.178 213.633 335.178C210.014 335.178 207.079 338.113 207.079 341.732C207.079 345.352 210.014 348.286 213.633 348.286Z" fill="white"/>
<path d="M213.605 260.77C213.003 264.771 214.082 265.608 214.088 282.855C214.094 300.102 217.672 323.226 213.627 323.227C209.581 323.228 208.102 275.506 194.055 271.282C177.54 266.316 215.554 247.82 213.605 260.77Z" fill="white"/>
<path d="M117.823 340.973L111.374 354.6C119.17 349.009 131.347 344.19 141.037 341.609C132.008 337.247 120.961 330.215 114.36 323.253L118.069 337.651C74.5847 328.793 43.3576 295.431 43.3444 257.215L41.7737 256.674C41.7875 296.592 72.5825 331.93 117.823 340.973Z" fill="#3F3D56"/>
</g>
<defs>
<clipPath id="clip0_303_962">
<rect width="513" height="409" fill="white"/>
</clipPath>
</defs>
</svg>
