<svg width="554" height="368" viewBox="0 0 554 368" fill="none" xmlns="http://www.w3.org/2000/svg">
<g clip-path="url(#clip0_303_1052)">
<path d="M280.652 103.43C275.712 95.2574 269.859 86.5313 260.692 83.8626C250.076 80.7722 239.171 86.9115 229.921 92.9697C202.258 111.088 175.618 130.723 150.123 151.785L150.15 152.102C169.999 150.733 189.848 149.364 209.697 147.994C224.038 147.005 238.871 145.879 251.545 139.093C256.354 136.517 261.042 133.078 266.491 132.838C273.261 132.54 279.165 137.27 283.804 142.212C311.247 171.445 319.188 216.15 349.977 241.834C330.563 193.938 307.382 147.659 280.652 103.43Z" fill="#F2F2F2"/>
<path d="M449.339 351.382C446.304 347.548 445.064 346.65 442.071 342.781C417.697 311.246 394.787 278.645 373.341 244.979C358.775 222.115 344.931 198.811 331.809 175.068C325.562 163.78 319.486 152.404 313.581 140.939C309 132.05 304.52 123.107 300.143 114.111C298.891 111.542 297.675 108.961 296.464 106.374C293.612 100.29 290.813 94.1765 287.808 88.1753C284.384 81.3354 280.215 74.1647 273.926 69.5694C271.065 67.3922 267.642 66.0749 264.06 65.7714C258.941 65.4406 254.217 67.5552 249.777 69.8647C217.29 86.8109 186.876 108.057 159.367 132.233C131.787 156.463 107.135 183.838 85.9136 213.798C85.2644 214.725 83.7291 213.839 84.3844 212.906C86.9648 209.256 89.5963 205.645 92.2789 202.073C125.635 157.694 166.535 119.531 213.109 89.3271C220.945 84.2474 228.928 79.4059 237.058 74.8026C241.156 72.4813 245.272 70.1895 249.458 68.0396C253.562 65.9309 257.919 64.0348 262.607 63.964C278.562 63.7159 286.822 81.7902 292.496 93.952C294.28 97.7795 296.084 101.595 297.911 105.399C304.813 119.841 311.981 134.151 319.415 148.329C324.003 157.082 328.691 165.785 333.48 174.436C348.383 201.376 364.223 227.771 381 253.621C403.225 287.861 425.272 318.109 450.591 350.129C451.288 351.015 450.042 352.279 449.339 351.382Z" fill="#E4E4E4"/>
<path d="M157.79 123.308C156.863 122.274 155.942 121.241 155.009 120.207C147.652 112.068 139.757 104.023 129.655 99.3565C124.837 97.0614 119.579 95.842 114.244 95.783C108.729 95.8007 103.338 97.2479 98.2426 99.2739C95.8334 100.237 93.4774 101.329 91.1571 102.493C88.5058 103.828 85.9018 105.251 83.3099 106.687C78.4444 109.38 73.6421 112.192 68.9029 115.121C59.4732 120.951 50.3388 127.226 41.4997 133.946C36.9176 137.431 32.4301 141.03 28.0372 144.743C23.9513 148.193 19.948 151.735 16.0274 155.369C15.189 156.143 13.9372 154.891 14.7756 154.117C15.8089 153.154 16.854 152.197 17.8991 151.252C20.8514 148.583 23.8509 145.964 26.8978 143.397C32.4538 138.707 38.1536 134.198 43.9973 129.87C53.0845 123.137 62.4845 116.86 72.1974 111.04C77.051 108.134 81.9715 105.35 86.9587 102.688C88.4646 101.885 89.988 101.099 91.529 100.355C95.0257 98.5904 98.6589 97.1109 102.393 95.9307C107.683 94.2188 113.28 93.6688 118.802 94.3182C124.134 95.094 129.27 96.8716 133.941 99.5574C143.861 105.104 151.555 113.68 159.042 122.05C159.798 122.9 158.551 124.159 157.79 123.308Z" fill="#E4E4E4"/>
<path d="M361.038 207.653L384.808 198.957L396.61 194.638C400.454 193.232 404.288 191.631 408.261 190.624C411.714 189.637 415.381 189.684 418.807 190.759C421.863 191.89 424.661 193.625 427.033 195.859C429.457 198.092 431.712 200.501 433.78 203.067C436.349 206.156 438.881 209.277 441.424 212.388C451.919 225.228 462.345 238.123 472.703 251.074C483.06 264.025 493.348 277.03 503.567 290.091C513.811 303.184 523.984 316.331 534.087 329.533C535.325 331.151 536.562 332.769 537.797 334.388C538.48 335.282 540.019 334.4 539.327 333.493C529.149 320.158 518.901 306.878 508.581 293.652C498.236 280.395 487.82 267.194 477.332 254.049C466.845 240.904 456.286 227.817 445.657 214.786C443.009 211.54 440.357 208.297 437.7 205.058C435.459 202.325 433.243 199.563 430.785 197.02C426.273 192.352 420.635 188.227 413.887 188.115C409.92 188.049 406.08 189.308 402.394 190.642C398.42 192.08 394.456 193.545 390.488 194.998L366.551 203.755L360.567 205.945C359.506 206.333 359.964 208.046 361.038 207.653Z" fill="#E4E4E4"/>
<path d="M126.527 109.598C114.447 103.388 98.9781 104.604 87.878 112.363C109.05 116.017 129.991 120.906 150.593 127.006C142.038 121.99 135.346 114.133 126.527 109.598Z" fill="#F2F2F2"/>
<path d="M87.7591 112.342L85.4337 114.233C86.2203 113.571 87.038 112.95 87.878 112.363C87.8384 112.356 87.7988 112.349 87.7591 112.342Z" fill="#F2F2F2"/>
<path d="M426.138 207.74C423.798 204.891 421.268 201.908 417.769 200.75L414.501 200.879C439.374 244.847 472.968 283.265 513.219 313.777C484.192 278.431 455.165 243.086 426.138 207.74Z" fill="#F2F2F2"/>
<path d="M222.951 184.236C224.463 189.732 227.869 194.515 232.568 197.74C234.384 198.978 236.533 200.164 237.155 202.273C237.481 203.617 237.28 205.035 236.592 206.235C235.905 207.42 235.069 208.512 234.105 209.484L234.017 209.813C229.509 207.141 225.221 203.761 222.731 199.149C220.241 194.537 219.893 188.493 222.951 184.236Z" fill="#F2F2F2"/>
<path d="M373.023 315.032C374.535 320.528 377.942 325.311 382.64 328.536C384.456 329.773 386.606 330.96 387.227 333.069C387.554 334.413 387.352 335.831 386.664 337.031C385.977 338.216 385.142 339.307 384.177 340.279L384.089 340.609C379.582 337.937 375.293 334.557 372.803 329.945C370.313 325.333 369.966 319.289 373.023 315.032Z" fill="#F2F2F2"/>
<path d="M73.5223 306.012C75.0344 311.507 78.441 316.291 83.1393 319.516C84.9557 320.753 87.1048 321.94 87.7262 324.048C88.0531 325.392 87.8517 326.811 87.1635 328.011C86.4766 329.195 85.6408 330.287 84.6765 331.259L84.5885 331.589C80.0809 328.917 75.7926 325.537 73.3026 320.925C70.8127 316.313 70.465 310.268 73.5223 306.012Z" fill="#F2F2F2"/>
<path d="M418.173 65.7203C436.315 65.7203 451.022 51.0083 451.022 32.8601C451.022 14.712 436.315 0 418.173 0C400.031 0 385.325 14.712 385.325 32.8601C385.325 51.0083 400.031 65.7203 418.173 65.7203Z" fill="#C71585"/>
<path d="M477.452 7.64821C461.532 5.49559 443.357 14.1034 439.231 29.6346C438.191 26.8731 436.301 24.5138 433.833 22.8976C431.365 21.2814 428.447 20.4918 425.501 20.643C422.555 20.7943 419.733 21.8784 417.444 23.7389C415.154 25.5994 413.515 28.1398 412.763 30.9932L414.586 32.299C448.701 39.6792 484.017 39.5195 518.064 31.831C506.99 20.1889 493.372 9.80079 477.452 7.64821Z" fill="#F0F0F0"/>
<path d="M409.179 51.4617C393.259 49.3091 375.084 57.9169 370.958 73.448C369.918 70.6866 368.027 68.3273 365.559 66.7111C363.091 65.0948 360.174 64.3053 357.228 64.4565C354.282 64.6077 351.46 65.6919 349.17 67.5524C346.881 69.4128 345.242 71.9533 344.49 74.8067L346.312 76.1125C380.428 83.4927 415.743 83.333 449.791 75.6445C438.717 64.0024 425.099 53.6143 409.179 51.4617Z" fill="#F0F0F0"/>
<path d="M548.126 59.7465C548.06 59.7467 547.994 59.7365 547.931 59.7163C377.63 5.83979 227.534 12.8851 131.606 28.2826C118.551 30.3773 105.462 32.7966 92.7008 35.4739C89.4429 36.1566 86.0631 36.8884 82.6552 37.6504C78.5853 38.5571 74.5695 39.4908 70.7188 40.4246C69.0558 40.8185 67.4252 41.2155 65.8271 41.6157C63.4065 42.2135 60.9502 42.8364 58.3173 43.5209C55.3752 44.2798 52.3859 45.0757 49.4306 45.8868C49.4198 45.8906 49.4087 45.8938 49.3975 45.8962L49.3979 45.8969C46.0598 46.8086 42.7393 47.7468 39.5283 48.6837C37.7904 49.1858 36.1123 49.681 34.5049 50.1699C34.3253 50.2196 34.1662 50.2674 34.0049 50.3165L33.6595 50.4216C33.4595 50.4826 33.262 50.5424 33.0645 50.599L33.0519 50.6028L33.0522 50.6034L32.5295 50.7658C31.9062 50.9546 31.298 51.1389 30.6998 51.3226C14.8907 56.1978 6.19995 59.666 6.11409 59.7C6.03558 59.7315 5.95164 59.7472 5.86707 59.7462C5.78249 59.7453 5.69893 59.7276 5.62116 59.6944C5.54339 59.6611 5.47293 59.6128 5.41381 59.5523C5.35469 59.4918 5.30806 59.4202 5.27659 59.3417C5.24512 59.2631 5.22943 59.1792 5.2304 59.0946C5.23137 59.0099 5.24899 58.9264 5.28225 58.8486C5.31551 58.7708 5.36376 58.7003 5.42426 58.6411C5.48475 58.582 5.55629 58.5354 5.6348 58.5039C5.72129 58.4699 14.4545 54.9841 30.3212 50.0906C30.9215 49.9063 31.5314 49.7219 32.1566 49.5325L32.6421 49.3815C32.6588 49.3752 32.6755 49.3702 32.6925 49.3652C32.889 49.3092 33.0853 49.2494 33.2847 49.189L33.6306 49.0839C33.8029 49.0317 33.9728 48.9801 34.1467 48.9323C35.7431 48.4465 37.4269 47.9501 39.1692 47.4461C42.3815 46.5085 45.705 45.5704 49.0456 44.6574C49.056 44.6536 49.0667 44.6511 49.0771 44.6479C52.0428 43.8344 55.0431 43.0346 57.9946 42.2733C60.6317 41.588 63.0926 40.9639 65.5174 40.3649C67.1222 39.9653 68.7559 39.5674 70.4185 39.1712C74.2736 38.2362 78.2975 37.3012 82.3747 36.3926C85.7879 35.63 89.1734 34.8963 92.4366 34.213C105.217 31.5313 118.328 29.1082 131.402 27.0104C227.467 11.5908 377.779 4.53415 548.32 58.4881C548.466 58.5344 548.591 58.6317 548.673 58.7623C548.754 58.893 548.786 59.0484 548.762 59.2004C548.739 59.3525 548.662 59.4911 548.545 59.5913C548.428 59.6914 548.28 59.7465 548.126 59.7465Z" fill="#CCCCCC"/>
<path d="M169.388 270.51C169.165 269.857 168.789 269.268 168.293 268.79C168.11 268.619 167.911 268.466 167.7 268.332C166.019 267.211 163.507 266.96 161.91 268.332C161.749 268.472 161.6 268.625 161.466 268.79C160.989 269.376 160.499 269.949 159.997 270.51C159.173 271.451 158.329 272.359 157.446 273.242C157.195 273.487 156.944 273.738 156.686 273.983C156.538 274.131 156.39 274.273 156.242 274.414C155.675 274.956 155.096 275.478 154.509 275.993C154.2 276.27 153.891 276.541 153.575 276.805C153.105 277.198 152.635 277.591 152.158 277.971C152.113 278.003 152.068 278.035 152.023 278.074C152.01 278.081 152.004 278.093 151.991 278.1C151.985 278.1 151.978 278.1 151.972 278.113C151.954 278.12 151.939 278.131 151.927 278.145C151.785 278.242 151.688 278.306 151.617 278.364C151.643 278.351 151.669 278.332 151.695 278.319C151.579 278.409 151.456 278.499 151.34 278.59C150.213 279.421 149.06 280.22 147.882 280.967C144.966 282.834 141.902 284.461 138.723 285.832C138.51 285.915 138.291 286.006 138.072 286.089C129.747 289.501 120.716 290.833 111.761 289.968C110.847 289.897 109.932 289.801 109.017 289.678C107.961 289.524 106.911 289.337 105.868 289.124C101.896 288.331 98.0088 287.157 94.2614 285.619C89.5739 283.472 85.1155 280.855 80.9546 277.81C80.3105 277.352 79.66 276.895 79.0094 276.45C79.7501 274.633 80.478 272.816 81.1865 270.987C81.5407 270.104 81.8821 269.221 82.217 268.332C84.8513 261.483 87.3246 254.569 89.6949 247.63C92.0909 240.601 94.3516 233.53 96.4771 226.419C96.6961 225.698 96.9087 224.976 97.1148 224.254C98.229 220.498 99.2982 216.733 100.322 212.959C100.419 212.592 100.522 212.231 100.612 211.864C100.908 210.782 101.198 209.699 101.482 208.617C102.126 206.175 100.67 203.256 98.1066 202.67C96.8724 202.353 95.5635 202.528 94.4558 203.158C93.348 203.788 92.5279 204.823 92.1682 206.046C91.8912 207.09 91.6142 208.127 91.3308 209.171C89.9718 214.216 88.5419 219.244 87.0412 224.254C86.8222 224.976 86.6032 225.698 86.3843 226.419C83.0736 237.334 79.4388 248.139 75.4798 258.835C75.0032 260.13 74.5201 261.421 74.0306 262.707C73.7923 263.339 73.554 263.97 73.3093 264.601C72.8391 265.845 72.356 267.088 71.873 268.332C71.596 269.06 71.3126 269.788 71.0292 270.51C70.8424 270.967 70.6621 271.425 70.4817 271.876C68.6453 271.216 66.7427 270.758 64.8073 270.51L64.4982 270.471C62.9977 270.291 61.4802 270.304 59.9831 270.51C57.7424 270.771 55.5864 271.522 53.6676 272.709C51.7489 273.896 50.1142 275.49 48.879 277.378C45.8067 282.217 45.8454 289.137 50.1543 293.248C54.5921 297.481 61.3099 297.449 66.5335 294.801C69.3016 293.302 71.6357 291.114 73.3093 288.448C73.9504 287.481 74.5395 286.481 75.0741 285.452C75.2093 285.542 75.3446 285.632 75.4798 285.729C75.9951 286.089 76.5104 286.457 77.0192 286.817C79.984 288.966 83.1083 290.885 86.3649 292.558C93.3674 296.041 100.905 298.321 108.663 299.304C108.837 299.324 109.005 299.349 109.179 299.369C110.035 299.478 110.898 299.562 111.761 299.633C124.142 300.566 136.538 298.032 147.56 292.313C148.494 291.83 149.419 291.323 150.336 290.793C151.759 289.968 153.15 289.092 154.509 288.164C155.25 287.662 155.971 287.153 156.686 286.618C159.811 284.316 162.723 281.739 165.388 278.918C166.399 277.855 167.367 276.758 168.293 275.626C169.168 274.7 169.672 273.484 169.71 272.211C169.705 271.629 169.596 271.053 169.388 270.51ZM62.7334 285.857C62.8686 285.761 63.0039 285.658 63.1327 285.555C63.0941 285.651 62.9072 285.761 62.7334 285.857ZM64.8009 283.776C64.6527 283.944 64.5175 284.111 64.3693 284.279C63.9187 284.783 63.4345 285.257 62.9201 285.696C62.8493 285.761 62.772 285.825 62.6947 285.883C62.6939 285.883 62.693 285.883 62.6922 285.884C62.6914 285.884 62.6907 285.884 62.6901 285.885C62.6895 285.886 62.689 285.886 62.6887 285.887C62.6884 285.888 62.6882 285.889 62.6883 285.89C62.5952 285.931 62.5049 285.979 62.4177 286.031C62.1408 286.199 61.8574 286.354 61.5676 286.495C61.0001 286.704 60.4163 286.866 59.8221 286.979C59.3655 287.012 58.9073 287.016 58.4502 286.991H58.4373C58.1218 286.921 57.8101 286.835 57.5034 286.734C57.3488 286.656 57.2006 286.566 57.0525 286.476C56.9945 286.424 56.943 286.373 56.9108 286.341C56.8479 286.283 56.7897 286.221 56.7369 286.154C56.737 286.153 56.7368 286.152 56.7365 286.151C56.7362 286.151 56.7357 286.15 56.7351 286.149C56.7345 286.149 56.7338 286.148 56.733 286.148C56.7322 286.147 56.7313 286.147 56.7305 286.147C56.6596 286.019 56.5823 285.89 56.5115 285.761C56.5078 285.757 56.5055 285.753 56.5051 285.748C56.4535 285.587 56.4085 285.419 56.3698 285.252C56.3558 284.958 56.358 284.663 56.3762 284.369C56.4627 283.957 56.5789 283.553 56.724 283.158C56.8545 282.878 57.0029 282.607 57.1685 282.346C57.1814 282.32 57.2458 282.217 57.3166 282.101C57.3231 282.095 57.323 282.095 57.323 282.088C57.4197 281.979 57.5163 281.863 57.6193 281.76C57.7932 281.566 57.98 281.399 58.1668 281.225C58.5301 280.987 58.9064 280.77 59.294 280.574C59.9088 280.356 60.5398 280.185 61.1811 280.065C62.1269 279.99 63.0774 279.998 64.0216 280.091C64.9159 280.246 65.7983 280.463 66.6623 280.742C66.1386 281.758 65.5424 282.736 64.8782 283.667C64.8524 283.705 64.8267 283.744 64.8009 283.776ZM57.6386 281.656C57.5819 281.748 57.5149 281.832 57.439 281.908C57.4901 281.813 57.5577 281.728 57.6386 281.656Z" fill="#3F3D56"/>
<path d="M150.027 204.706C149.969 206.729 149.911 208.752 149.853 210.775C149.73 215.266 149.604 219.759 149.473 224.254C149.337 229.312 149.196 234.368 149.048 239.422C148.977 242.031 148.904 244.641 148.829 247.25C148.629 254.28 148.431 261.307 148.236 268.332C148.217 269.06 148.191 269.782 148.172 270.51C148.075 273.996 147.978 277.481 147.882 280.967C147.772 284.749 147.665 288.531 147.56 292.314C147.482 295.149 147.403 297.986 147.321 300.825C146.742 321.398 146.162 341.971 145.582 362.544C145.558 363.818 145.041 365.033 144.14 365.934C143.24 366.835 142.025 367.352 140.752 367.376C139.474 367.366 138.251 366.854 137.347 365.95C136.444 365.046 135.931 363.823 135.921 362.544C136.243 350.972 136.569 339.4 136.9 327.828C137.19 317.365 137.484 306.901 137.782 296.437C137.879 292.99 137.976 289.541 138.072 286.09C138.22 280.896 138.366 275.703 138.51 270.51C138.53 269.782 138.555 269.06 138.575 268.332C138.588 267.694 138.607 267.063 138.626 266.425C138.91 256.341 139.193 246.256 139.476 236.168C139.592 232.199 139.704 228.228 139.811 224.254C139.94 219.725 140.069 215.198 140.198 210.672C140.256 208.681 140.307 206.697 140.365 204.706C140.39 203.432 140.907 202.217 141.807 201.316C142.708 200.415 143.922 199.898 145.196 199.874C146.474 199.884 147.697 200.396 148.6 201.3C149.504 202.204 150.016 203.427 150.027 204.706Z" fill="#3F3D56"/>
<path d="M415.022 206.047C409.957 225.234 403.903 244.147 396.884 262.709C394.947 267.829 392.966 272.939 390.848 277.987L391.335 276.833C390.39 279.237 389.182 281.53 387.735 283.67C387.636 283.808 387.536 283.945 387.434 284.08C387.935 283.44 388.03 283.313 387.719 283.7C387.556 283.894 387.394 284.088 387.225 284.277C386.774 284.782 386.29 285.256 385.776 285.697C385.647 285.808 385.516 285.916 385.382 286.022L385.986 285.552C385.916 285.718 385.424 285.937 385.271 286.031C384.775 286.33 384.257 286.593 383.722 286.816L384.876 286.329C383.999 286.682 383.085 286.933 382.151 287.077L383.435 286.904C382.517 287.031 381.587 287.041 380.667 286.934L381.951 287.106C381.198 287.003 380.461 286.804 379.758 286.515L380.912 287.003C380.537 286.839 380.175 286.646 379.831 286.425C379.656 286.311 379.119 285.904 379.821 286.441C380.551 286.999 379.915 286.489 379.765 286.341C379.639 286.217 379.526 286.083 379.404 285.957C378.836 285.374 380.046 286.96 379.66 286.279C379.453 285.937 379.264 285.585 379.094 285.224L379.581 286.378C379.359 285.829 379.202 285.256 379.112 284.67L379.285 285.955C379.192 285.226 379.192 284.489 379.283 283.761L379.11 285.045C379.228 284.232 379.443 283.436 379.751 282.674L379.264 283.829C379.478 283.316 379.732 282.821 380.023 282.348C380.156 282.103 380.313 281.872 380.492 281.657C380.523 281.668 379.675 282.632 380.125 282.145C380.243 282.018 380.353 281.884 380.472 281.757C380.663 281.555 380.867 281.37 381.068 281.179C381.741 280.538 380.127 281.801 380.903 281.294C381.466 280.924 382.058 280.601 382.674 280.328L381.52 280.815C382.551 280.391 383.632 280.101 384.737 279.952L383.453 280.125C384.837 279.965 386.235 279.982 387.614 280.174L386.33 280.001C388.077 280.266 389.784 280.747 391.413 281.432L390.259 280.944C393.731 282.435 396.805 284.649 399.874 286.819C402.838 288.967 405.962 290.885 409.217 292.558C416.22 296.041 423.758 298.322 431.517 299.306C442.644 300.67 453.935 299.216 464.354 295.079C474.774 290.941 483.987 284.253 491.15 275.626C492.024 274.699 492.528 273.483 492.565 272.209C492.556 270.93 492.048 269.704 491.15 268.792C489.378 267.165 486.03 266.705 484.319 268.792C482.697 270.773 480.953 272.651 479.097 274.415C478.231 275.237 477.342 276.034 476.429 276.806C475.908 277.246 475.38 277.678 474.844 278.101C474.591 278.302 473.802 278.835 475.014 277.974C474.736 278.171 474.47 278.387 474.195 278.589C470.139 281.581 465.743 284.082 461.1 286.041L462.254 285.554C457.271 287.645 452.038 289.079 446.685 289.821L447.97 289.648C442.463 290.372 436.886 290.364 431.382 289.623L432.666 289.796C427.163 289.04 421.782 287.574 416.656 285.434L417.81 285.921C412.863 283.732 408.169 281.011 403.81 277.808C401.541 276.128 399.148 274.621 396.652 273.302C393.744 271.816 390.595 270.859 387.353 270.474C381.273 269.759 375.078 272.127 371.736 277.382C368.66 282.217 368.7 289.136 373.007 293.248C377.444 297.483 384.162 297.447 389.39 294.798C394.425 292.247 397.449 286.947 399.576 281.949C404.363 270.703 408.6 259.196 412.548 247.631C416.454 236.189 419.996 224.632 423.175 212.958C423.568 211.512 423.956 210.065 424.338 208.616C424.983 206.175 423.526 203.256 420.965 202.672C419.73 202.354 418.42 202.528 417.311 203.158C416.203 203.788 415.382 204.823 415.022 206.047Z" fill="#3F3D56"/>
<path d="M463.221 204.705L461.482 266.426L459.753 327.826L458.775 362.544C458.785 363.822 459.298 365.045 460.202 365.949C461.105 366.853 462.327 367.366 463.605 367.377C464.879 367.352 466.093 366.835 466.994 365.934C467.894 365.033 468.411 363.818 468.436 362.544L470.175 300.823L471.904 239.424L472.882 204.705C472.872 203.427 472.359 202.204 471.456 201.3C470.552 200.397 469.33 199.884 468.052 199.873C466.778 199.898 465.564 200.415 464.663 201.316C463.763 202.217 463.246 203.432 463.221 204.705Z" fill="#3F3D56"/>
<path opacity="0.2" d="M296.017 345.312H297.517V276.987H332.51V275.491H297.517V246.661H324.54C324.144 246.157 323.736 245.659 323.317 245.168H297.517V226.127C297.021 225.915 296.521 225.711 296.017 225.519V245.168H266.613V220.771C266.109 220.794 265.613 220.829 265.113 220.871V245.168H241.655V226.966C241.152 227.189 240.655 227.423 240.163 227.67V245.168H220.444V246.661H240.163V275.491H220.444V276.987H240.163V345.312H241.655V276.987C244.736 276.987 247.787 277.593 250.633 278.772C253.479 279.951 256.066 281.68 258.244 283.859C260.422 286.038 262.15 288.625 263.329 291.472C264.507 294.32 265.114 297.371 265.113 300.453V345.312H266.613V276.987H296.017V345.312ZM241.655 275.491V246.661H265.113V275.491H241.655ZM266.613 275.491V246.661H267.202C270.986 246.661 274.733 247.407 278.229 248.856C281.726 250.305 284.902 252.429 287.578 255.106C290.254 257.783 292.376 260.961 293.824 264.459C295.272 267.956 296.017 271.705 296.017 275.491H266.613Z" fill="black"/>
<path d="M286.857 324.826C284.968 333.252 280.445 340.858 273.943 346.539C273.466 346.951 272.989 347.351 272.493 347.744C271.289 347.853 270.093 347.965 268.906 348.079C267.92 348.169 266.948 348.266 265.982 348.356L265.808 348.375L265.685 347.319L265.196 343.04C263.297 339.939 262.12 336.45 261.752 332.832C261.384 329.214 261.835 325.559 263.07 322.139C264.771 317.551 267.849 313.498 270.877 309.478C275.057 303.924 279.121 298.434 279.269 291.663C281.326 294.296 283.036 297.182 284.357 300.251C283.111 300.839 281.99 301.664 281.06 302.68C280.796 302.97 280.532 303.376 280.712 303.724C280.866 304.021 281.253 304.091 281.588 304.13C282.393 304.214 283.205 304.298 284.01 304.381C284.654 304.452 285.298 304.517 285.942 304.588C286.721 307.146 287.25 309.774 287.52 312.435C287.954 316.575 287.73 320.756 286.857 324.826Z" fill="#3F3D56"/>
<path d="M308.24 307.938C304.44 310.702 302.218 314.678 300.492 319.059C298.723 319.625 297.131 320.642 295.874 322.01C295.61 322.3 295.346 322.706 295.526 323.054C295.681 323.35 296.067 323.421 296.402 323.46C297.207 323.544 298.019 323.627 298.824 323.711C297.098 328.891 295.513 334.252 292.46 338.627C290.43 341.515 287.783 343.916 284.712 345.656C283.874 346.134 283.01 346.562 282.123 346.939C278.851 347.19 275.641 347.458 272.493 347.744C271.289 347.854 270.093 347.965 268.906 348.079C267.92 348.169 266.948 348.266 265.982 348.356C265.975 348.002 265.975 347.647 265.982 347.293C266.185 337.853 269.657 328.776 275.804 321.611C276.094 321.276 276.39 320.947 276.693 320.618C279.807 317.291 283.469 314.523 287.52 312.436C293.903 309.116 301.056 307.563 308.24 307.938Z" fill="#C71585"/>
<path d="M270.02 344.774L269.279 346.964L268.906 348.079C267.92 348.169 266.948 348.266 265.982 348.356L265.808 348.375C264.739 348.485 263.676 348.594 262.613 348.704C262.336 348.382 262.059 348.053 261.789 347.718C255.066 339.574 251.839 329.099 252.813 318.582C253.787 308.065 258.882 298.362 266.986 291.592C266.136 296.044 267.128 300.309 268.758 304.543C268.584 304.613 268.416 304.684 268.255 304.762C267.008 305.349 265.888 306.174 264.958 307.191C264.693 307.481 264.429 307.887 264.61 308.234C264.764 308.531 265.151 308.602 265.486 308.64C266.291 308.724 267.102 308.808 267.907 308.892C268.552 308.963 269.196 309.027 269.84 309.098C270.142 309.13 270.445 309.162 270.748 309.194C270.793 309.291 270.832 309.381 270.877 309.478C272.712 313.46 274.69 317.461 275.804 321.61C276.083 322.652 276.303 323.708 276.461 324.774C276.957 328.378 276.636 332.046 275.521 335.509C274.405 338.971 272.526 342.138 270.02 344.774Z" fill="#C71585"/>
<path d="M334.853 251.322C329.308 240.503 320.718 231.4 310.614 224.71C300.479 218.029 288.848 213.961 276.759 212.867C275.175 212.723 273.586 212.639 271.994 212.614C270.112 212.586 241.808 220.753 232.326 227.422C222.85 234.01 215.054 242.734 209.569 252.89C204.093 263.102 201.399 274.575 201.759 286.158C202.228 297.811 205.475 309.182 211.229 319.325C216.904 329.435 224.962 338.005 234.702 344.29C244.581 350.595 254.504 367.315 266.168 367.905C277.92 368.499 291.323 352.728 302.041 347.939C312.759 343.111 322.025 335.556 328.916 326.029C335.612 316.693 339.943 305.871 341.539 294.491C343.197 282.84 342.424 270.824 338.447 259.688C337.426 256.826 336.226 254.032 334.853 251.322C333.707 249.064 330.347 248.232 328.244 249.589C327.16 250.256 326.375 251.316 326.052 252.547C325.73 253.779 325.894 255.087 326.511 256.2C327.184 257.527 327.81 258.875 328.388 260.245L327.901 259.091C330.091 264.358 331.58 269.89 332.33 275.546L332.158 274.261C332.956 280.396 332.941 286.61 332.115 292.742L332.288 291.457C331.453 297.588 329.817 303.583 327.422 309.288L327.909 308.133C326.677 311.044 325.241 313.864 323.612 316.573C322.786 317.941 321.91 319.278 320.984 320.582C320.577 321.154 320.157 321.716 319.735 322.277C319.183 323.009 320.486 321.321 319.916 322.039C319.819 322.161 319.723 322.284 319.625 322.406C319.333 322.771 319.036 323.134 318.735 323.493C316.727 325.89 314.536 328.127 312.181 330.183C311.594 330.696 310.998 331.196 310.392 331.685C310.09 331.929 309.791 332.183 309.477 332.41C309.489 332.401 310.494 331.637 309.899 332.081C309.712 332.22 309.526 332.362 309.339 332.501C308.089 333.427 306.807 334.306 305.491 335.137C302.461 337.047 299.283 338.709 295.987 340.107L297.141 339.62C291.455 342.014 285.479 343.65 279.366 344.485L280.65 344.313C274.541 345.139 268.349 345.15 262.236 344.345L263.521 344.518C257.965 343.772 252.531 342.302 247.357 340.147L248.511 340.634C245.514 339.368 242.624 337.862 239.87 336.129C238.507 335.27 237.179 334.358 235.887 333.393C235.703 333.255 235.52 333.115 235.336 332.977C234.747 332.532 235.76 333.305 235.768 333.311C235.425 333.065 235.095 332.801 234.779 332.521C234.155 332.013 233.541 331.493 232.936 330.961C230.517 328.83 228.258 326.524 226.178 324.061C225.657 323.445 225.147 322.82 224.649 322.185C224.433 321.911 224.039 321.354 224.909 322.526C224.795 322.372 224.676 322.221 224.56 322.067C224.283 321.699 224.009 321.328 223.739 320.954C222.793 319.645 221.894 318.303 221.041 316.93C219.115 313.82 217.434 310.566 216.014 307.195L216.501 308.35C214.177 302.817 212.587 297.004 211.773 291.058L211.946 292.343C211.211 286.862 211.201 281.308 211.914 275.825L211.742 277.11C212.474 271.8 213.902 266.609 215.989 261.672L215.502 262.827C216.816 259.736 218.365 256.752 220.137 253.899C221.024 252.471 221.963 251.079 222.956 249.721C223.182 249.412 223.41 249.106 223.641 248.801C223.849 248.525 224.423 247.839 223.444 249.051C223.54 248.932 223.632 248.81 223.727 248.69C224.272 247.999 224.83 247.32 225.401 246.651C227.564 244.118 229.907 241.745 232.411 239.55C233.044 238.995 233.687 238.452 234.34 237.92C234.637 237.679 234.935 237.44 235.236 237.203C235.356 237.109 235.478 237.016 235.598 236.921C234.311 237.945 235.24 237.199 235.532 236.981C236.878 235.972 238.259 235.014 239.677 234.106C242.828 232.09 246.143 230.343 249.587 228.882L248.433 229.369C253.432 227.27 275.576 222.314 279.603 222.855L278.319 222.683C284.239 223.509 290.025 225.109 295.529 227.439L294.375 226.952C297.165 228.137 299.875 229.499 302.491 231.03C303.798 231.796 305.079 232.605 306.334 233.454C306.928 233.857 307.516 234.268 308.098 234.688C308.389 234.898 308.678 235.111 308.965 235.325C309.125 235.445 309.283 235.565 309.443 235.685C310.112 236.187 308.521 234.958 309.222 235.513C311.571 237.359 313.801 239.35 315.9 241.475C316.931 242.525 317.926 243.609 318.887 244.726C319.379 245.299 319.861 245.88 320.333 246.47C320.568 246.763 321.367 247.824 320.388 246.525C320.627 246.842 320.869 247.158 321.106 247.478C323.141 250.234 324.949 253.151 326.511 256.2C327.665 258.454 331.011 259.294 333.12 257.934C334.204 257.267 334.989 256.207 335.312 254.976C335.634 253.744 335.47 252.436 334.853 251.322Z" fill="#3F3D56"/>
<path d="M278.566 330.184C278.067 330.207 277.574 330.076 277.152 329.809C276.73 329.541 276.401 329.151 276.208 328.69C276.015 328.23 275.969 327.721 276.075 327.233C276.181 326.745 276.435 326.302 276.801 325.963C276.863 325.719 276.907 325.543 276.968 325.299C276.946 325.246 276.924 325.193 276.902 325.14C274.661 319.794 260.359 334.697 259.74 339.722C259.468 341.943 259.583 344.194 260.08 346.376C255.447 336.267 253.041 325.279 253.026 314.159C253.025 311.368 253.18 308.579 253.49 305.806C253.747 303.532 254.102 301.275 254.557 299.034C257.04 286.873 262.372 275.476 270.113 265.777C274.54 266.024 278.42 265.349 278.795 256.766C278.862 255.239 279.994 253.917 280.243 252.413C279.821 252.468 279.391 252.503 278.968 252.53C278.837 252.537 278.698 252.544 278.566 252.551L278.517 252.553C278.052 252.574 277.592 252.46 277.19 252.225C276.789 251.99 276.464 251.644 276.255 251.229C276.046 250.814 275.961 250.347 276.011 249.884C276.06 249.422 276.243 248.984 276.536 248.622C276.718 248.398 276.901 248.173 277.084 247.949C277.361 247.602 277.645 247.262 277.922 246.916C277.954 246.883 277.984 246.848 278.012 246.812C278.331 246.417 278.65 246.029 278.968 245.634C278.387 244.73 277.604 243.974 276.682 243.422C273.487 241.551 269.081 242.847 266.773 245.738C264.459 248.628 264.022 252.683 264.826 256.294C265.617 259.367 266.924 262.283 268.693 264.917C268.519 265.139 268.339 265.354 268.166 265.576C264.999 269.649 262.239 274.023 259.926 278.635C260.58 273.52 252.576 255.047 249.48 251.135C245.762 246.435 238.137 248.486 237.482 254.444C237.476 254.501 237.469 254.559 237.463 254.617C237.923 254.876 238.373 255.152 238.814 255.443C239.367 255.813 239.796 256.341 240.043 256.959C240.291 257.576 240.347 258.255 240.203 258.904C240.059 259.554 239.722 260.145 239.237 260.6C238.751 261.056 238.14 261.353 237.482 261.455L237.415 261.465C231.26 270.256 250.991 293.136 255.929 287.999C253.605 294.589 252.147 301.453 251.592 308.419C251.278 312.529 251.296 316.657 251.647 320.764L251.626 320.619C250.529 311.674 231.704 298.375 226.207 299.483C223.04 300.121 219.921 299.976 220.401 303.172C220.409 303.223 220.417 303.274 220.425 303.325C221.278 303.672 222.109 304.073 222.912 304.524C223.372 304.783 223.822 305.059 224.263 305.35C224.816 305.72 225.245 306.248 225.492 306.866C225.74 307.483 225.796 308.161 225.652 308.811C225.508 309.461 225.171 310.052 224.686 310.507C224.2 310.962 223.589 311.26 222.931 311.362L222.864 311.372C222.815 311.379 222.774 311.386 222.725 311.393C219.924 321.036 240.7 336.598 253.331 331.647H253.338C254.59 337.088 256.403 342.384 258.749 347.451H278.081C278.151 347.236 278.213 347.014 278.275 346.799C276.486 346.911 274.69 346.804 272.926 346.48C274.361 344.719 275.795 342.945 277.229 341.184C277.261 341.152 277.291 341.117 277.319 341.08C278.047 340.179 278.781 339.285 279.509 338.384L279.509 338.383C279.548 335.621 279.231 332.865 278.566 330.184L278.566 330.184ZM256.428 286.62L256.438 286.606L256.428 286.633V286.62ZM252.146 325.235L251.98 324.861C251.987 324.59 251.987 324.32 251.98 324.043C251.98 323.967 251.966 323.89 251.966 323.814C252.028 324.292 252.084 324.771 252.153 325.249L252.146 325.235Z" fill="#3F3D56"/>
<path d="M61.3486 289.943C65.2615 289.943 68.4335 286.769 68.4335 282.855C68.4335 278.941 65.2615 275.768 61.3486 275.768C57.4356 275.768 54.2636 278.941 54.2636 282.855C54.2636 286.769 57.4356 289.943 61.3486 289.943Z" fill="#3F3D56"/>
<path d="M146.368 367.26C150.281 367.26 153.453 364.087 153.453 360.173C153.453 356.259 150.281 353.085 146.368 353.085C142.455 353.085 139.283 356.259 139.283 360.173C139.283 364.087 142.455 367.26 146.368 367.26Z" fill="#3F3D56"/>
<path d="M469.056 367.26C472.969 367.26 476.141 364.087 476.141 360.173C476.141 356.259 472.969 353.085 469.056 353.085C465.143 353.085 461.971 356.259 461.971 360.173C461.971 364.087 465.143 367.26 469.056 367.26Z" fill="#3F3D56"/>
<path d="M486.446 277.056C490.359 277.056 493.531 273.883 493.531 269.968C493.531 266.054 490.359 262.881 486.446 262.881C482.534 262.881 479.361 266.054 479.361 269.968C479.361 273.883 482.534 277.056 486.446 277.056Z" fill="#3F3D56"/>
<path d="M465.836 211.336C469.749 211.336 472.921 208.162 472.921 204.248C472.921 200.334 469.749 197.161 465.836 197.161C461.923 197.161 458.751 200.334 458.751 204.248C458.751 208.162 461.923 211.336 465.836 211.336Z" fill="#3F3D56"/>
<path d="M170.199 269.969C170.195 271.779 169.495 273.519 168.245 274.827C166.994 276.136 165.288 276.913 163.481 276.999C161.673 277.084 159.901 276.471 158.533 275.287C157.164 274.102 156.303 272.437 156.128 270.635C155.953 268.833 156.477 267.033 157.592 265.606C158.707 264.18 160.327 263.237 162.117 262.973C163.908 262.709 165.731 263.143 167.21 264.186C168.69 265.229 169.711 266.801 170.064 268.577C170.155 269.035 170.2 269.501 170.199 269.969Z" fill="#3F3D56"/>
<path d="M311.899 231.954C315.812 231.954 318.984 228.781 318.984 224.866C318.984 220.952 315.812 217.779 311.899 217.779C307.986 217.779 304.814 220.952 304.814 224.866C304.814 228.781 307.986 231.954 311.899 231.954Z" fill="#3F3D56"/>
<path d="M241.693 224.867C241.689 226.677 240.989 228.417 239.738 229.725C238.488 231.034 236.782 231.811 234.974 231.897C233.167 231.982 231.395 231.369 230.027 230.185C228.658 229 227.797 227.335 227.622 225.533C227.447 223.731 227.971 221.93 229.086 220.504C230.201 219.078 231.821 218.135 233.611 217.871C235.402 217.607 237.225 218.041 238.704 219.084C240.183 220.127 241.205 221.699 241.558 223.475C241.649 223.933 241.694 224.399 241.693 224.867Z" fill="#3F3D56"/>
<path d="M150.233 204.248C150.228 206.059 149.529 207.798 148.278 209.107C147.027 210.416 145.322 211.193 143.514 211.279C141.706 211.364 139.935 210.751 138.566 209.567C137.198 208.382 136.337 206.716 136.162 204.915C135.986 203.113 136.51 201.312 137.625 199.886C138.74 198.46 140.36 197.517 142.151 197.253C143.941 196.989 145.765 197.423 147.244 198.466C148.723 199.509 149.745 201.081 150.097 202.857C150.188 203.315 150.234 203.781 150.233 204.248Z" fill="#3F3D56"/>
<path d="M385.969 292.52C389.882 292.52 393.054 289.347 393.054 285.432C393.054 281.518 389.882 278.345 385.969 278.345C382.056 278.345 378.884 281.518 378.884 285.432C378.884 289.347 382.056 292.52 385.969 292.52Z" fill="#3F3D56"/>
<path d="M274.542 228.088C280.233 228.088 284.847 223.472 284.847 217.779C284.847 212.085 280.233 207.47 274.542 207.47C268.85 207.47 264.236 212.085 264.236 217.779C264.236 223.472 268.85 228.088 274.542 228.088Z" fill="#3F3D56"/>
<path d="M553.233 367.802L0.766902 368C0.666191 368 0.566463 367.98 0.473418 367.942C0.380374 367.903 0.295836 367.846 0.224623 367.775C0.153409 367.704 0.0969128 367.619 0.0583723 367.526C0.0198318 367.433 3.8147e-06 367.334 3.8147e-06 367.233C3.8147e-06 367.132 0.0198318 367.032 0.0583723 366.939C0.0969128 366.846 0.153409 366.762 0.224623 366.69C0.295836 366.619 0.380374 366.563 0.473418 366.524C0.566463 366.485 0.666191 366.466 0.766902 366.466L553.233 366.268C553.436 366.268 553.631 366.349 553.774 366.493C553.917 366.637 553.998 366.832 553.998 367.035C553.998 367.238 553.917 367.433 553.774 367.576C553.631 367.72 553.436 367.801 553.233 367.802Z" fill="#CACACA"/>
</g>
<defs>
<clipPath id="clip0_303_1052">
<rect width="554" height="368" fill="white"/>
</clipPath>
</defs>
</svg>
