<svg width="70" height="70" viewBox="0 0 70 70" fill="none" xmlns="http://www.w3.org/2000/svg">
<path d="M34.9998 34.9998C31.7915 34.9998 29.045 33.8575 26.7603 31.5728C24.4755 29.288 23.3332 26.5415 23.3332 23.3332C23.3332 20.1248 24.4755 17.3783 26.7603 15.0936C29.045 12.8089 31.7915 11.6665 34.9998 11.6665C38.2082 11.6665 40.9547 12.8089 43.2394 15.0936C45.5241 17.3783 46.6665 20.1248 46.6665 23.3332C46.6665 26.5415 45.5241 29.288 43.2394 31.5728C40.9547 33.8575 38.2082 34.9998 34.9998 34.9998ZM11.6665 58.3332V50.1665C11.6665 48.5137 12.0919 46.9946 12.9425 45.6092C13.7932 44.2238 14.9234 43.1665 16.3332 42.4373C19.3471 40.9304 22.4096 39.8002 25.5207 39.0467C28.6318 38.2932 31.7915 37.9165 34.9998 37.9165C38.2082 37.9165 41.3679 38.2932 44.479 39.0467C47.5901 39.8002 50.6526 40.9304 53.6665 42.4373C55.0762 43.1665 56.2064 44.2238 57.0571 45.6092C57.9078 46.9946 58.3332 48.5137 58.3332 50.1665V58.3332H11.6665ZM17.4998 52.4998H52.4998V50.1665C52.4998 49.6318 52.3662 49.1457 52.0988 48.7082C51.8314 48.2707 51.479 47.9304 51.0415 47.6873C48.4165 46.3748 45.7672 45.3905 43.0936 44.7342C40.42 44.078 37.7221 43.7498 34.9998 43.7498C32.2776 43.7498 29.5797 44.078 26.9061 44.7342C24.2325 45.3905 21.5832 46.3748 18.9582 47.6873C18.5207 47.9304 18.1682 48.2707 17.9009 48.7082C17.6335 49.1457 17.4998 49.6318 17.4998 50.1665V52.4998ZM34.9998 29.1665C36.604 29.1665 37.9773 28.5953 39.1196 27.453C40.262 26.3106 40.8332 24.9373 40.8332 23.3332C40.8332 21.729 40.262 20.3557 39.1196 19.2134C37.9773 18.071 36.604 17.4998 34.9998 17.4998C33.3957 17.4998 32.0224 18.071 30.88 19.2134C29.7377 20.3557 29.1665 21.729 29.1665 23.3332C29.1665 24.9373 29.7377 26.3106 30.88 27.453C32.0224 28.5953 33.3957 29.1665 34.9998 29.1665Z" fill="#1D1B20"/>
</svg>
